PathFileType	4	(X/Y/Z)	C:/Users/opensim2020/Desktop/walking_exp_matlab/subject03_walking07_straight_01.trc																																																																																																																																								
DataRate	CameraRate	NumFrames	NumMarkers	Units	OrigDataRate	OrigDataStartFrame	OrigNumFrames																																																																																																																																				
100	100	8	46	mm	100	781	310																																																																																																																																				
Frame#	Time	LFHD			RFHD			LBHD			RBHD			C7			T10			CLAV			STRN			RBAK			LSHO			LUPA			LELB			LFRM			LWRA			LWRB			LFIN			RSHO			RUPA			RELB			RFRM			RWRA			RWRB			RFIN			LASI			RASI			LPSI			RPSI			LTHI			LKNE			LTIB			LANK			LHEE			LTOE			RTHI			RKNE			RTIB			RANK			RHEE			RTOE			*39			*40			*41			*42			*43			*44			*45		
		X1	Y1	Z1	X2	Y2	Z2	X3	Y3	Z3	X4	Y4	Z4	X5	Y5	Z5	X6	Y6	Z6	X7	Y7	Z7	X8	Y8	Z8	X9	Y9	Z9	X10	Y10	Z10	X11	Y11	Z11	X12	Y12	Z12	X13	Y13	Z13	X14	Y14	Z14	X15	Y15	Z15	X16	Y16	Z16	X17	Y17	Z17	X18	Y18	Z18	X19	Y19	Z19	X20	Y20	Z20	X21	Y21	Z21	X22	Y22	Z22	X23	Y23	Z23	X24	Y24	Z24	X25	Y25	Z25	X26	Y26	Z26	X27	Y27	Z27	X28	Y28	Z28	X29	Y29	Z29	X30	Y30	Z30	X31	Y31	Z31	X32	Y32	Z32	X33	Y33	Z33	X34	Y34	Z34	X35	Y35	Z35	X36	Y36	Z36	X37	Y37	Z37	X38	Y38	Z38	X39	Y39	Z39	X40	Y40	Z40	X41	Y41	Z41	X42	Y42	Z42	X43	Y43	Z43	X44	Y44	Z44	X45	Y45	Z45	X46	Y46	Z46
																																																																																																																																											
117	1.16	-449.69925	1624.87646	1388.38892	-450.62427	1625.97534	1522.15894	-571.45502	1565.84814	1391.95325	-567.86865	1567.47498	1523.13708	-588.87714	1414.16565	1453.98364	-633.79303	1105.26917	1454.60889	-468.99081	1334.96643	1445.4762	-431.98828	1167.46545	1439.3667	-636.75006	1243.65198	1556.51367	-525.57782	1373.09741	1292.20313	-566.87946	1177.18103	1225.51331	-576.85089	1054.50537	1211.96765	-560.1084	925.21381	1208.19202	-542.23871	806.38599	1235.13269	-574.97412	812.98438	1189.953	-561.34753	729.45972	1196.86755	-499.33774	1360.95032	1607.23096	-462.41809	1146.58264	1687.20276	-423.59448	1041.26965	1701.59436	-375.41443	912.95258	1703.21338	-328.90607	826.19037	1664.06799	-351.51971	815.7298	1711.83276	-312.34164	753.18872	1700.32568	-476.66898	935.3717	1335.04211	-475.19727	935.06195	1570.4917	-639.15662	957.42316	1382.4552	-635.04724	972.98956	1531.8623	-463.56952	638.96222	1282.43701	-397.21466	475.67224	1321.94434	-402.48825	282.43243	1318.02515	-366.63608	74.04284	1351.92371	-400.10696	35.69054	1392.19214	-217.06241	55.6962	1367.83655	-569.57092	647.33295	1610.13708	-588.59351	468.14508	1574.84436	-666.81506	292.48236	1580.34998	-729.86548	83.58094	1531.65833	-778.78253	56.12375	1482.50232	-591.81256	36.41338	1510.94751	-540.09656	1676.50134	1442.9408	NaN	NaN	NaN	NaN	NaN	NaN	NaN	NaN	NaN	NaN	NaN	NaN	NaN	NaN	NaN	NaN	NaN	NaN
118	1.17	-440.63965	1623.64185	1387.65088	-441.48901	1624.896	1521.46582	-562.35364	1564.46582	1391.39563	-558.67841	1566.24402	1522.55591	-579.64655	1413.03186	1453.54102	-624.66724	1104.05286	1453.61011	-459.84802	1333.62683	1444.83228	-422.82346	1166.27075	1438.99133	-627.54102	1242.43237	1555.86816	-516.48187	1371.94556	1291.67859	-558.79279	1176.11304	1225.39355	-569.63806	1053.42126	1212.09241	-553.47668	923.98242	1208.25293	-535.89087	805.20099	1235.02673	-569.21771	811.85718	1190.22144	-555.73102	728.36462	1196.98145	-489.99649	1359.73962	1606.68066	-452.42307	1145.65173	1686.79187	-412.94583	1040.62476	1701.18042	-363.27008	912.89746	1702.22131	-315.92911	826.84662	1662.53638	-338.20279	815.93048	1710.32056	-298.19064	753.99756	1698.42261	-466.88776	933.85889	1334.70911	-466.88986	933.82135	1570.86047	-629.50476	955.94958	1381.52954	-626.19867	971.71082	1530.8678	-457.35669	636.24335	1281.67273	-389.96576	473.71503	1322.96851	-388.24063	281.577	1317.99292	-344.03662	74.5564	1349.94336	-375.30496	34.96293	1390.89014	-192.93353	59.50174	1366.04089	-562.68213	646.82184	1610.27893	-583.0177	467.74167	1575.14111	-663.48657	292.87048	1580.51868	-729.17474	84.62432	1531.98682	-778.35291	57.81099	1482.81738	-591.58856	36.33461	1511.2605	-529.20056	1673.51318	1439.96228	NaN	NaN	NaN	NaN	NaN	NaN	NaN	NaN	NaN	NaN	NaN	NaN	NaN	NaN	NaN	NaN	NaN	NaN
119	1.18	-431.61111	1622.44861	1386.87244	-432.33591	1623.77954	1520.68787	-553.1546	1563.16211	1390.74072	-549.43243	1565.0614	1521.85291	-570.22565	1411.80737	1452.97546	-615.19446	1102.83435	1452.50684	-450.50385	1332.45264	1444.36108	-413.68008	1165.01074	1438.35254	-618.49438	1241.35974	1555.28088	-507.24454	1370.7915	1291.13525	-550.46838	1174.99316	1225.20837	-562.19366	1052.245	1211.95935	-546.38177	922.86499	1208.22437	-529.36847	803.90613	1235.05847	-563.0343	810.71362	1190.53955	-549.95758	727.28369	1197.13892	-480.67825	1358.46912	1606.08911	-442.45795	1144.75684	1686.2981	-402.44427	1039.92896	1700.72607	-351.37146	912.77081	1701.20459	-302.99512	827.82574	1660.77039	-325.15112	816.05328	1708.76953	-284.21863	754.87671	1696.75867	-456.98593	932.39502	1334.28674	-458.0863	932.76672	1570.63501	-619.6615	954.4845	1380.47461	-617.32831	970.55408	1529.90356	-450.88782	633.70923	1280.20129	-382.52655	471.67798	1323.75586	-374.85095	280.82104	1318.07605	-322.94186	75.11644	1348.52368	-352.66583	34.792	1389.495	-170.39154	64.05196	1363.99414	-555.53162	646.22668	1610.19641	-577.16687	467.26102	1575.42896	-659.99518	293.30573	1580.82263	-728.4303	85.77233	1532.36609	-777.97449	59.54053	1483.14795	-591.47815	36.20925	1511.30286	-520.24365	1672.25854	1439.33228	NaN	NaN	NaN	NaN	NaN	NaN	NaN	NaN	NaN	NaN	NaN	NaN	NaN	NaN	NaN	NaN	NaN	NaN
120	1.19	-422.40384	1621.26282	1386.0885	-423.19177	1622.75	1519.86255	-543.93481	1561.83118	1389.99451	-540.18256	1563.85754	1521.1969	-560.93677	1410.59021	1452.31238	-605.75079	1101.57056	1451.48206	-441.03876	1331.29175	1443.79224	-404.19727	1163.71143	1437.88184	-609.19287	1240.125	1554.48108	-497.76498	1369.6792	1290.46057	-541.70001	1173.85132	1224.95093	-553.83618	1051.16455	1212.02856	-538.73376	921.67883	1208.10962	-522.75403	802.59143	1235.03174	-556.48663	809.58264	1190.71326	-543.86493	726.09546	1197.29773	-471.36072	1357.25635	1605.42651	-432.55991	1143.82678	1685.69006	-392.12219	1039.1748	1700.02417	-339.75769	912.54852	1700.04724	-290.63565	828.01288	1659.41296	-312.52655	816.1087	1707.13367	-270.81107	755.56934	1694.74133	-446.97742	931.04083	1333.9187	-449.17902	931.75537	1570.26001	-609.91357	953.24402	1379.37671	-608.20648	969.25732	1528.73145	-443.9765	631.47241	1279.66772	-375.28329	469.67517	1324.48645	-362.32785	280.16953	1318.03052	-303.9863	76.05344	1347.38782	-332.10687	34.84764	1388.11633	-150.41481	68.69201	1362.45642	-548.24945	645.68921	1610.07556	-571.12891	466.79373	1575.68579	-656.31476	293.72446	1580.97266	-727.69598	87.00243	1532.75989	-777.53235	61.44534	1483.50427	-591.3053	36.06369	1511.43225	-510.95218	1671.08276	1438.37732	NaN	NaN	NaN	NaN	NaN	NaN	NaN	NaN	NaN	NaN	NaN	NaN	NaN	NaN	NaN	NaN	NaN	NaN
121	1.2	-413.19763	1620.10889	1385.2616	-413.87003	1621.70361	1519.04871	-534.64386	1560.56982	1389.28992	-530.84528	1562.69324	1520.40955	-551.38794	1409.45325	1451.57703	-596.37402	1100.45923	1450.60498	-431.65454	1330.08557	1443.08923	-394.70377	1162.59229	1437.30981	-600.01837	1239.02368	1553.65442	-488.11041	1368.55042	1289.69763	-532.68866	1172.80957	1224.58228	-545.30273	1050.1521	1211.95813	-531.27344	920.46295	1208.1283	-516.00281	801.18506	1235.19446	-549.62421	808.52161	1190.72632	-537.59949	724.85516	1197.50806	-462.00604	1356.06787	1604.7334	-422.76804	1142.91711	1684.92114	-381.9523	1038.40002	1699.27502	-328.38895	912.30872	1698.93384	-278.10403	828.86072	1658.17749	-300.20697	816.09247	1705.58459	-257.75897	756.06708	1692.77124	-436.9108	929.72601	1333.51147	-440.04617	930.53418	1569.79248	-600.08606	952.25873	1378.19507	-598.95361	968.08917	1527.51721	-436.17902	629.56024	1279.45752	-367.767	467.69736	1325.22913	-350.71854	279.57144	1318.17444	-286.96063	76.7458	1346.33154	-313.60086	34.55057	1387.17261	-132.61252	72.79794	1360.55347	-540.74988	645.0954	1609.96375	-564.75635	466.26334	1575.83167	-652.3974	294.19821	1581.14526	-726.8288	88.40443	1533.1571	-777.01556	63.56002	1483.92163	-591.04395	35.99293	1511.6001	-502.13739	1670.35364	1438.52588	NaN	NaN	NaN	NaN	NaN	NaN	NaN	NaN	NaN	NaN	NaN	NaN	NaN	NaN	NaN	NaN	NaN	NaN
122	1.21	-403.89359	1619.05591	1384.37085	-404.62286	1620.76489	1518.20776	-525.23212	1559.33728	1388.45605	-521.47845	1561.57983	1519.60547	-541.89923	1408.26501	1450.73169	-586.54456	1099.28796	1449.66174	-421.92978	1328.97632	1442.45801	-384.89752	1161.64941	1436.91443	-590.53857	1237.83289	1552.65833	-478.31131	1367.48608	1288.95605	-523.14404	1171.69934	1224.11731	-536.40466	1049.05493	1211.60168	-523.18408	919.28119	1207.94385	-508.1893	800.0426	1234.77271	-542.42706	807.40729	1190.74072	-531.11438	723.62579	1197.65063	-452.66492	1354.94922	1604.0033	-413.01242	1141.99609	1684.07654	-371.92987	1037.61768	1698.44299	-317.32999	912.01025	1697.72473	-266.23047	828.966	1656.47144	-288.23105	816.06281	1703.96228	-245.02997	756.73865	1691.12427	-426.84866	928.5307	1333.07446	-431.17593	929.56433	1569.49536	-589.88251	951.23193	1376.84839	-589.65643	966.99756	1526.32324	-427.36206	628.12067	1279.40039	-359.84073	466.07526	1325.6947	-339.91135	278.96075	1318.16846	-272.4357	77.04113	1345.52832	-298.33511	34.01978	1386.33923	-117.75571	76.14703	1359.21228	-533.07117	644.4574	1609.71448	-558.09979	465.72675	1575.89783	-648.14789	294.69351	1581.16418	-725.75647	90.04033	1533.49365	-776.39783	65.86606	1484.33533	-590.81219	35.90107	1511.72656	-492.71078	1669.00037	1436.96252	NaN	NaN	NaN	NaN	NaN	NaN	NaN	NaN	NaN	NaN	NaN	NaN	NaN	NaN	NaN	NaN	NaN	NaN
123	1.22	-394.53253	1618.0896	1383.52759	-395.32019	1619.91541	1517.29895	-515.88593	1558.19409	1387.62292	-512.08948	1560.55798	1518.7583	-532.28375	1407.18604	1449.79761	-576.66083	1098.19348	1448.65344	-412.20502	1328.06104	1441.703	-375.04117	1160.57825	1436.24561	-581.10309	1236.80444	1551.5636	-468.25461	1366.46375	1288.06335	-513.50446	1170.60901	1223.55225	-526.95667	1047.80103	1211.32031	-514.71295	918.03333	1207.76782	-500.68698	798.72589	1234.81238	-534.7085	806.24982	1190.70496	-524.30298	722.33655	1197.82703	-443.29965	1353.90979	1603.22656	-403.46994	1141.11816	1683.15015	-362.11981	1036.81042	1697.41663	-306.55341	911.66486	1696.44556	-254.52257	829.53052	1655.14063	-276.66367	815.9295	1702.29346	-232.83728	757.16016	1689.33569	-416.45105	927.59937	1332.70947	-421.79584	928.48425	1569.0011	-579.75348	950.31305	1375.49939	-580.15942	965.82941	1524.97571	-417.8829	627.11871	1280.08643	-350.90485	465.11453	1326.0293	-329.58646	278.33044	1317.85071	-260.65952	76.64969	1345.15063	-286.04303	32.95478	1385.70996	-106.04845	77.95231	1358.60376	-525.10809	643.85522	1609.23254	-551.21161	465.2045	1575.79724	-643.64636	295.25635	1581.07886	-724.60162	91.76629	1533.80225	-775.73944	68.50046	1484.65967	-590.54523	35.81591	1511.8114	NaN	NaN	NaN	NaN	NaN	NaN	NaN	NaN	NaN	NaN	NaN	NaN	NaN	NaN	NaN	NaN	NaN	NaN	NaN	NaN	NaN
124	1.23	-385.13785	1617.27905	1382.61035	-385.95978	1619.19678	1516.38196	-506.30606	1557.13391	1386.71191	-502.61938	1559.62085	1517.87708	-522.61829	1406.23682	1448.76135	-566.77692	1097.26489	1447.70959	-402.41309	1327.18152	1440.96606	-365.07571	1159.85266	1435.7876	-571.57806	1235.8197	1550.38379	-458.21478	1365.45142	1287.19153	-503.47586	1169.49329	1222.87561	-517.25323	1046.76196	1210.86182	-505.77222	916.82343	1207.46228	-494.37714	796.6925	1236.02917	-526.66309	805.16345	1190.45215	-517.12482	721.05609	1197.97852	-433.92914	1353.01672	1602.34094	-393.93137	1140.26379	1682.14807	-352.53738	1036.05273	1696.44812	-296.10867	911.33057	1695.24084	-243.2113	829.84241	1653.78809	-265.51675	815.74896	1700.70825	-221.04417	757.55945	1687.51611	-405.93356	926.85309	1332.2865	-412.34979	927.45551	1568.62671	-569.56305	949.64056	1374.22095	-570.52631	964.76971	1523.73987	-407.16989	626.44214	1280.09607	-340.85233	464.48083	1325.95593	-319.86951	277.56891	1317.51318	-251.74022	75.67705	1345.32629	-276.88599	31.46549	1385.63477	-97.14452	77.44708	1358.30591	-516.94946	643.34375	1608.96814	-543.99036	464.69852	1575.62659	-639.01575	295.99399	1581.0564	-723.45569	93.78836	1534.04492	-774.91541	71.42527	1484.92993	-590.34155	35.73834	1511.9314	-474.08051	1667.19348	1435.14465	NaN	NaN	NaN	NaN	NaN	NaN	NaN	NaN	NaN	NaN	NaN	NaN	NaN	NaN	NaN	NaN	NaN	NaN
